<?xml version="1.0" standalone="no"?><svg xmlns="http://www.w3.org/2000/svg" viewBox="0 0 1440 320"><path fill="#0099ff" fill-opacity="0.2" d="M0,32L34.3,32C68.6,32,137,32,206,58.7C274.3,85,343,139,411,144C480,149,549,107,617,74.7C685.7,43,754,21,823,26.7C891.4,32,960,64,1029,96C1097.1,128,1166,160,1234,160C1302.9,160,1371,128,1406,112L1440,96L1440,0L1405.7,0C1371.4,0,1303,0,1234,0C1165.7,0,1097,0,1029,0C960,0,891,0,823,0C754.3,0,686,0,617,0C548.6,0,480,0,411,0C342.9,0,274,0,206,0C137.1,0,69,0,34,0L0,0Z"></path></svg>