<?xml version="1.0" standalone="no"?><svg xmlns="http://www.w3.org/2000/svg" viewBox="0 0 1440 320"><path fill="#0099ff" fill-opacity="0.2" d="M0,96L17.1,106.7C34.3,117,69,139,103,149.3C137.1,160,171,160,206,149.3C240,139,274,117,309,106.7C342.9,96,377,96,411,101.3C445.7,107,480,117,514,144C548.6,171,583,213,617,197.3C651.4,181,686,107,720,64C754.3,21,789,11,823,10.7C857.1,11,891,21,926,48C960,75,994,117,1029,117.3C1062.9,117,1097,75,1131,48C1165.7,21,1200,11,1234,42.7C1268.6,75,1303,149,1337,192C1371.4,235,1406,245,1423,250.7L1440,256L1440,0L1422.9,0C1405.7,0,1371,0,1337,0C1302.9,0,1269,0,1234,0C1200,0,1166,0,1131,0C1097.1,0,1063,0,1029,0C994.3,0,960,0,926,0C891.4,0,857,0,823,0C788.6,0,754,0,720,0C685.7,0,651,0,617,0C582.9,0,549,0,514,0C480,0,446,0,411,0C377.1,0,343,0,309,0C274.3,0,240,0,206,0C171.4,0,137,0,103,0C68.6,0,34,0,17,0L0,0Z"></path></svg>